<?xml version="1.0" encoding="utf-8"?>
<!-- Generator: Adobe Illustrator 21.1.0, SVG Export Plug-In . SVG Version: 6.00 Build 0)  -->
<svg version="1.1" id="WebAnimationClub" xmlns="http://www.w3.org/2000/svg" xmlns:xlink="http://www.w3.org/1999/xlink" x="0px"
	 y="0px" viewBox="0 0 260 260" style="enable-background:new 0 0 260 260;" xml:space="preserve">
<g id="Club">
	<path d="M47,97.3c5-4.1,11.8-6.1,20.5-6.1c6.5,0,11.4,1.1,14.4,3.4c3.1,2.3,4.6,5.9,4.6,10.8c0,3.2-0.7,7.3-2.1,12.1l-4.5,15.3
		c-0.2,0.4-0.5,0.6-0.8,0.6H60.3c-0.7,0-1-0.3-0.8-0.9l4.7-16.2c0.2-0.8,0.3-1.3,0.3-1.4c0-0.8-0.3-1.4-0.9-1.9s-1.3-0.7-2.1-0.7
		c-1.4,0-2.6,0.5-3.7,1.4c-1.1,1-2,2.8-2.8,5.5L37.7,177c-0.5,2-0.8,3.4-0.8,4.2c0,1.6,0.9,2.4,2.7,2.4c1,0,2-0.2,3-0.8
		c0.3-0.2,0.6-0.2,0.8-0.1c0.3,0.2,0.3,0.4,0.2,0.8L38.1,204c-0.2,0.4-0.5,0.6-0.8,0.6c-0.3,0-0.6,0-0.9,0.1c-0.3,0-0.6,0.1-0.9,0.1
		h-1.8c-6.5,0-11.3-1.1-14.4-3.3c-3-2.2-4.5-5.7-4.5-10.6c0-3.4,0.8-7.6,2.3-12.4l18.4-61.3C38.2,108,42,101.4,47,97.3z"/>
	<path d="M62.9,201.8L95.4,93.9c0.2-0.4,0.5-0.6,0.8-0.6h18.7c0.7,0,1,0.3,0.8,0.9l-26.3,87.3h18.7c0.7,0,1,0.3,0.8,0.9l-5.9,19.6
		c-0.2,0.4-0.5,0.6-0.8,0.6H63.6C62.9,202.7,62.7,202.4,62.9,201.8z"/>
	<path d="M155.2,191.6c-2,3.4-4.3,6-6.9,8c-2.6,2-5.6,3.3-8.9,4.1c-3.3,0.8-7,1.1-11.2,1.1c-6.3,0-11.2-0.9-14.6-2.8
		c-3.4-1.9-5.1-5.4-5.1-10.6c0-1.7,0.2-3.6,0.6-5.7c0.4-2.1,1-4.5,1.8-7.1l25.4-84.6c0.2-0.4,0.5-0.6,0.8-0.6h18.7
		c0.7,0,1,0.3,0.8,0.9l-24.5,81.3c-0.8,2.7-1.2,4.6-1.2,5.7c0,1,0.3,1.7,0.8,2c0.5,0.3,1.3,0.5,2.4,0.5c1.7,0,3.1-0.5,4.1-1.6
		c1-1.1,2.1-3.3,3.2-6.9l24.5-81.3c0.2-0.4,0.5-0.6,0.8-0.6h18.7c0.7,0,1,0.3,0.8,0.9l-25.4,84.6C159,183.9,157.2,188.2,155.2,191.6
		z"/>
	<path d="M178.6,134.8l24.6,0.2c0.9,0,1.7-0.1,2.4-0.4c0.7-0.3,1.4-0.8,2-1.5c0.6-0.8,1.2-1.8,1.7-3.1c0.6-1.3,1.1-3.1,1.7-5.3
		c1-1.2,1.5-2.4,1.5-3.5c0-0.2,0-0.4-0.1-0.6c-0.1-0.2-0.1-0.4-0.1-0.6c0.2-0.6,0.3-1.1,0.3-1.5c0-0.5,0-1,0-1.4
		c0-1.1-0.2-1.8-0.7-2.2c-0.5-0.4-1.2-0.5-2.3-0.5h-0.6c-0.2,0-0.5,0-0.9-0.1c-0.4,0-1.3-0.1-2.8-0.2c-1.5,0-3.7-0.1-6.7-0.1
		c-2.9,0-7,0-12.4,0c-0.7,0-1-0.3-0.8-0.9l5.9-19.3c0.2-0.4,0.5-0.6,0.8-0.6h27.3c5.6,0,9.8,1.1,12.4,3.2c2.6,2.2,3.9,5.4,3.9,9.7
		c0,1.5-0.2,3.1-0.5,4.7c-0.3,1.6-0.7,3.4-1.2,5.3l-2.9,9.4c-1.1,4-2.9,7.8-5.4,11.4c-2.5,3.6-6,6.3-10.5,8.2
		c4.3,1.5,6.5,4.8,6.5,10c0,1.3-0.1,2.6-0.4,4c-0.3,1.4-0.6,2.9-1.1,4.6l-5,16.2c-2.3,7.6-5.6,13.2-10,17
		c-4.3,3.8-10.3,5.7-17.8,5.7h-27.9c-0.7,0-1-0.3-0.8-0.9l18.9-66.3C178,135,178.3,134.8,178.6,134.8z M185.4,181.5h3.3
		c1.2,0,2.2-0.1,3.1-0.4c0.9-0.2,1.6-0.8,2.3-1.7c0.7-0.9,1.4-2.2,2.1-3.9c0.7-1.7,1.5-4,2.4-6.9v0.2c0.7-2.5,1.2-4.6,1.6-6.2
		c0.4-1.6,0.5-2.9,0.5-3.8c0-1.1-0.3-1.8-1-2.1c-0.7-0.3-1.7-0.5-3.1-0.5H193L185.4,181.5z"/>
</g>
<g id="WebAnimation">
	<path d="M51,55.8h5.2c0.2,0,0.3,0.1,0.2,0.2l-4.4,20.6l8.2-20.7c0-0.1,0.1-0.1,0.2-0.1h5.7c0.2,0,0.3,0.1,0.2,0.2l-4.1,20.5l8-20.6
		c0-0.1,0.1-0.1,0.2-0.1h5.2c0.2,0,0.3,0.1,0.2,0.3L63.4,85c-0.1,0.1-0.1,0.1-0.2,0.1h-6.4c-0.2,0-0.3-0.1-0.2-0.2l4.1-20.2L52.7,85
		c-0.1,0.1-0.1,0.1-0.2,0.1h-6.3c-0.2,0-0.3-0.1-0.2-0.2L50.8,56C50.8,55.8,50.9,55.8,51,55.8z"/>
	<path d="M78,55.8h10.3c0.2,0,0.3,0.1,0.2,0.2l-1.6,5.3c-0.1,0.1-0.1,0.2-0.2,0.2h-5.1L79.9,67h4.8c0.2,0,0.3,0.1,0.2,0.2l-1.6,5.3
		c-0.1,0.1-0.1,0.2-0.2,0.2h-4.9l-2,6.8h5c0.2,0,0.3,0.1,0.2,0.2L79.8,85c-0.1,0.1-0.1,0.2-0.2,0.2H69.3c-0.2,0-0.3-0.1-0.2-0.2
		L77.8,56C77.8,55.8,77.9,55.8,78,55.8z"/>
	<path d="M87.1,66.9l6.6,0c0.2,0,0.5,0,0.6-0.1c0.2-0.1,0.4-0.2,0.5-0.4c0.2-0.2,0.3-0.5,0.5-0.8c0.1-0.4,0.3-0.8,0.5-1.4
		c0.3-0.3,0.4-0.6,0.4-0.9c0-0.1,0-0.1,0-0.2c0-0.1,0-0.1,0-0.2c0.1-0.2,0.1-0.3,0.1-0.4c0-0.1,0-0.3,0-0.4c0-0.3-0.1-0.5-0.2-0.6
		c-0.1-0.1-0.3-0.1-0.6-0.1h-0.2c-0.1,0-0.1,0-0.2,0c-0.1,0-0.4,0-0.7,0c-0.4,0-1,0-1.8,0c-0.8,0-1.9,0-3.3,0
		c-0.2,0-0.3-0.1-0.2-0.2l1.6-5.2c0.1-0.1,0.1-0.2,0.2-0.2h7.3c1.5,0,2.6,0.3,3.3,0.9c0.7,0.6,1.1,1.5,1.1,2.6c0,0.4,0,0.8-0.1,1.3
		c-0.1,0.4-0.2,0.9-0.3,1.4l-0.8,2.5c-0.3,1.1-0.8,2.1-1.4,3.1c-0.7,1-1.6,1.7-2.8,2.2c1.2,0.4,1.7,1.3,1.7,2.7c0,0.4,0,0.7-0.1,1.1
		c-0.1,0.4-0.2,0.8-0.3,1.2L97,79c-0.6,2-1.5,3.5-2.7,4.6c-1.2,1-2.8,1.5-4.8,1.5H82c-0.2,0-0.3-0.1-0.2-0.2l5.1-17.8
		C86.9,67,87,66.9,87.1,66.9z M88.9,79.5h0.9c0.3,0,0.6,0,0.8-0.1c0.2-0.1,0.4-0.2,0.6-0.5c0.2-0.2,0.4-0.6,0.6-1.1
		c0.2-0.5,0.4-1.1,0.6-1.9v0c0.2-0.7,0.3-1.2,0.4-1.7c0.1-0.4,0.1-0.8,0.1-1c0-0.3-0.1-0.5-0.3-0.6c-0.2-0.1-0.5-0.1-0.8-0.1h-1
		L88.9,79.5z"/>
	<path d="M103,85c-0.1-0.1-0.1-0.1,0-0.2l12.9-28.9c0.1-0.1,0.1-0.1,0.2-0.1h6.7c0.1,0,0.2,0.1,0.2,0.2L118.5,85
		c0,0.1-0.1,0.2-0.2,0.2h-5.2c-0.2,0-0.3-0.1-0.2-0.2l0.9-4.9h-3.1l-2,5c-0.1,0.1-0.1,0.1-0.2,0.1h-5.3
		C103.2,85.1,103.1,85.1,103,85z M117.3,63.2L113,74.3h1.9L117.3,63.2z"/>
	<path d="M139.1,56c0.1-0.1,0.1-0.2,0.2-0.2h4.7c0.2,0,0.3,0.1,0.2,0.2L135.6,85c-0.1,0.1-0.1,0.2-0.2,0.2H129
		c-0.1,0-0.2-0.1-0.2-0.2l1.6-18.4L124.9,85c-0.1,0.1-0.1,0.2-0.2,0.2h-4.8c-0.2,0-0.3-0.1-0.2-0.2l8.7-28.9
		c0.1-0.1,0.1-0.2,0.2-0.2h6.4c0.1,0,0.2,0.1,0.2,0.2l-1.7,18.8L139.1,56z"/>
	<path d="M138.3,84.9L147,56c0.1-0.1,0.1-0.2,0.2-0.2h5c0.2,0,0.3,0.1,0.2,0.2L143.8,85c-0.1,0.1-0.1,0.2-0.2,0.2h-5
		C138.3,85.1,138.3,85,138.3,84.9z"/>
	<path d="M167.9,55.9c0-0.1,0.1-0.1,0.2-0.1h8c0.2,0,0.3,0.1,0.2,0.2L167.6,85c-0.1,0.1-0.1,0.2-0.2,0.2h-4.7
		c-0.2,0-0.3-0.1-0.2-0.2l6.5-21.7L159.7,85c-0.1,0.1-0.1,0.1-0.2,0.1h-5c-0.2,0-0.3-0.1-0.2-0.2l3.9-21.9l-6.6,22
		c-0.1,0.1-0.1,0.2-0.2,0.2h-4.7c-0.2,0-0.3-0.1-0.2-0.2l8.7-28.9c0.1-0.1,0.1-0.2,0.2-0.2h8c0.2,0,0.3,0.1,0.2,0.2l-4.1,21
		L167.9,55.9z"/>
	<path d="M168.7,85c-0.1-0.1-0.1-0.1,0-0.2l12.9-28.9c0.1-0.1,0.1-0.1,0.2-0.1h6.7c0.1,0,0.2,0.1,0.2,0.2L184.1,85
		c0,0.1-0.1,0.2-0.2,0.2h-5.2c-0.2,0-0.3-0.1-0.2-0.2l0.9-4.9h-3.1l-2,5c-0.1,0.1-0.1,0.1-0.2,0.1h-5.3
		C168.8,85.1,168.7,85.1,168.7,85z M183,63.2l-4.4,11.1h1.9L183,63.2z"/>
	<path d="M190.1,61.5c-0.2,0-0.3-0.1-0.2-0.2l1.6-5.3c0.1-0.1,0.1-0.2,0.2-0.2h12.5c0.2,0,0.3,0.1,0.2,0.2l-1.6,5.3
		c-0.1,0.1-0.1,0.2-0.2,0.2h-3.6L192,85c-0.1,0.1-0.1,0.2-0.2,0.2h-5c-0.2,0-0.3-0.1-0.2-0.2l7-23.4H190.1z"/>
	<path d="M197.1,84.9l8.7-28.9c0.1-0.1,0.1-0.2,0.2-0.2h5c0.2,0,0.3,0.1,0.2,0.2L202.5,85c-0.1,0.1-0.1,0.2-0.2,0.2h-5
		C197.1,85.1,197.1,85,197.1,84.9z"/>
	<path d="M213.2,58.8c0.5-0.9,1.2-1.6,1.9-2.1c0.7-0.5,1.5-0.9,2.4-1.1c0.9-0.2,1.9-0.3,3-0.3c1.7,0,3,0.2,3.9,0.7
		c0.9,0.5,1.3,1.5,1.3,2.9c0,0.9-0.2,2.1-0.6,3.4l-4.9,16.5c-0.4,1.4-0.9,2.5-1.5,3.4c-0.5,0.9-1.2,1.6-1.9,2.1s-1.5,0.9-2.4,1.1
		c-0.9,0.2-1.9,0.3-3,0.3c-1.7,0-3-0.2-3.9-0.7s-1.4-1.5-1.4-2.9c0-0.5,0.1-1,0.2-1.5c0.1-0.6,0.3-1.2,0.5-1.9l4.9-16.5
		C212.2,60.8,212.7,59.7,213.2,58.8z M212.1,79.1c0,0.1,0,0.2,0,0.3c0,0.4,0.3,0.6,0.9,0.6c0.5,0,0.8-0.1,1.1-0.3
		c0.2-0.2,0.5-0.6,0.6-1.1v0l4.9-16.4c0.1-0.3,0.1-0.5,0.1-0.7c0-0.4-0.3-0.6-0.9-0.6c-0.9,0-1.5,0.5-1.7,1.4l-4.9,16.4
		C212.2,78.8,212.2,79,212.1,79.1z"/>
	<path d="M240,56c0.1-0.1,0.1-0.2,0.2-0.2h4.7c0.2,0,0.3,0.1,0.2,0.2L236.4,85c-0.1,0.1-0.1,0.2-0.2,0.2h-6.3
		c-0.1,0-0.2-0.1-0.2-0.2l1.6-18.4L225.7,85c-0.1,0.1-0.1,0.2-0.2,0.2h-4.8c-0.2,0-0.3-0.1-0.2-0.2l8.7-28.9
		c0.1-0.1,0.1-0.2,0.2-0.2h6.4c0.1,0,0.2,0.1,0.2,0.2l-1.7,18.8L240,56z"/>
</g>
</svg>
